# xmcd
#
# Track frame offsets:
#	150
#	22384
#	35452
#	50195
#	60418
#	81152
#	90549
#	103837
#	121820
#	137813
#	152874
#	173894
#
# Disc length: 2575 seconds
#
# Revision: 1
# Processed by: cddbd v1.5.1PL2 Copyright (c) Steve Scherf et al.
# Submitted via: audiograbber 1.83.01
#
DISCID=a40a0d0c
DTITLE=Anja Winter - Honky Tonk Crazy
DYEAR=2002
DGENRE=Country
TTITLE0=Like The Day
TTITLE1=Wrong Night
TTITLE2=Down The Road
TTITLE3=The One That's Got Away
TTITLE4=A Soft Place To Fall
TTITLE5=Lift Up Your Leg
TTITLE6=Crazy As You
TTITLE7=Rose Of My Heart
TTITLE8=Love's Gonna Get Ya
TTITLE9=Last Time I Saw Heaven
TTITLE10=Honky Tonk Crazy
TTITLE11=I'll Be
EXTD=
EXTT0=
EXTT1=
EXTT2=
EXTT3=
EXTT4=
EXTT5=
EXTT6=
EXTT7=
EXTT8=
EXTT9=
EXTT10=
EXTT11=
PLAYORDER=
